# ProBuilder 4.2.3
# https://unity3d.com/unity/features/worldbuilding/probuilder
# 2020-12-29 PM 4:37:42

mtllib ./PB_Sphere.mtl
o PB_Sphere

g Origin Sphere
v -0.02102924 0.03402603 0
v -0.03236068 0.02 0.01236068
v -0.01236068 0.03236068 0.02
v -0.03402603 0 0.02102924
v -0.02 0.01236068 0.03236068
v 0 0.02102924 0.03402603
v 0 0.04 0
v 0.01236068 0.03236068 0.02
v 0.02102924 0.03402603 0
v -0.01236068 0.03236068 -0.02
v 0.01236068 0.03236068 -0.02
v 0 0.02102924 -0.03402603
v -0.03236068 0.02 -0.01236068
v -0.02 0.01236068 -0.03236068
v -0.03402603 0 -0.02102924
v -0.04 0 0
v 0.03236068 0.02 0.01236068
v 0.02 0.01236068 0.03236068
v 0.03402603 0 0.02102924
v 0 0 0.04
v -0.02 -0.01236068 0.03236068
v 0 -0.02102924 0.03402603
v -0.03236068 -0.02 0.01236068
v -0.03236068 -0.02 -0.01236068
v -0.02102924 -0.03402603 0
v -0.02 -0.01236068 -0.03236068
v 0 0 -0.04
v 0 -0.02102924 -0.03402603
v 0.02 0.01236068 -0.03236068
v 0.03236068 0.02 -0.01236068
v 0.03402603 0 -0.02102924
v 0.02102924 -0.03402603 0
v 0.03236068 -0.02 0.01236068
v 0.01236068 -0.03236068 0.02
v 0.02 -0.01236068 0.03236068
v 0 -0.04 0
v -0.01236068 -0.03236068 0.02
v 0.01236068 -0.03236068 -0.02
v -0.01236068 -0.03236068 -0.02
v 0.03236068 -0.02 -0.01236068
v 0.02 -0.01236068 -0.03236068
v 0.04 0 0

vt -0.02102924 0
vt -0.03236068 0.01236068
vt -0.01236068 0.02
vt -0.01236068 0.06
vt -0.02102924 0.04
vt -0.03236068 0.05236068
vt 0.03236068 0.06
vt 0.02 0.05236068
vt 0.01236068 0.07236068
vt 0 0.06102924
vt 0 0
vt 0 0.03402603
vt 0.01236068 0.02
vt 0.02102924 0
vt -0.01236068 -0.02
vt 0.01236068 -0.02
vt 0 -0.03402603
vt -0.03236068 -0.01236068
vt -0.01236068 0.07236068
vt -0.02 0.05236068
vt -0.03236068 0.06
vt 0.01236068 0.06
vt 0.03236068 0.05236068
vt 0.02102924 0.04
vt 0 0.07402603
vt 0 0.04
vt 0.03236068 0.01236068
vt 0.03402603 0.04
vt 0.02 0.02763932
vt 0 0.01897076
vt 0 0.005973969
vt -0.03402603 0.04
vt -0.02 0.02763932
vt 0.03236068 -0.01236068
vt 0.03236068 0.02763932
vt -0.03236068 0.02
vt -0.01236068 0.007639319
vt 0.01236068 0.007639319
vt 0.03236068 0.02
vt -0.03236068 0.02763932

vn -0.5831288 0.7487835 0.315094
vn -0.7487835 0.3150938 0.5831288
vn -0.5773503 0.5773503 0.5773503
vn -0.3150937 0.5831288 0.7487835
vn -0.2680348 0.9435222 0.1947387
vn 0 0.7778674 0.6284285
vn 0 0.9341724 0.356822
vn 0.2680348 0.9435222 0.1947387
vn -0.2680348 0.9435222 -0.1947387
vn 0.2680348 0.9435222 -0.1947387
vn 0 0.9341724 -0.356822
vn 0 0.7778674 -0.6284285
vn -0.5831288 0.7487835 -0.315094
vn -0.3150937 0.5831288 -0.7487835
vn -0.5773503 0.5773503 -0.5773503
vn -0.7487835 0.3150938 -0.5831288
vn -0.7778675 0.6284283 0
vn -0.9435222 0.1947386 -0.2680349
vn -0.9341724 0.356822 0
vn -0.9435222 0.1947386 0.2680349
vn 0.5831288 0.7487835 0.315094
vn 0.3150937 0.5831288 0.7487835
vn 0.5773503 0.5773503 0.5773503
vn 0.7487835 0.3150938 0.5831288
vn -0.1947386 0.268035 0.9435222
vn -0.6284284 0 0.7778674
vn -0.356822 0 0.9341724
vn -0.1947386 -0.2680349 0.9435222
vn -0.9435222 -0.1947386 0.2680349
vn -0.9435222 -0.1947386 -0.2680349
vn -0.9341724 -0.356822 0
vn -0.7778675 -0.6284284 0
vn -0.6284284 0 -0.7778674
vn -0.1947386 0.268035 -0.9435222
vn -0.356822 0 -0.9341724
vn -0.1947386 -0.2680349 -0.9435222
vn 0.3150937 0.5831288 -0.7487835
vn 0.5831288 0.7487835 -0.315094
vn 0.5773503 0.5773503 -0.5773503
vn 0.7487835 0.3150938 -0.5831288
vn 0.5831288 -0.7487835 0.3150938
vn 0.7487835 -0.3150938 0.5831288
vn 0.5773503 -0.5773503 0.5773503
vn 0.3150938 -0.5831288 0.7487835
vn 0.2680349 -0.9435222 0.1947386
vn 0 -0.7778675 0.6284284
vn 0 -0.9341724 0.356822
vn -0.2680349 -0.9435222 0.1947386
vn 0.2680349 -0.9435222 -0.1947386
vn -0.2680349 -0.9435222 -0.1947386
vn 0 -0.9341724 -0.356822
vn 0 -0.7778675 -0.6284284
vn 0.5831288 -0.7487835 -0.3150938
vn 0.3150938 -0.5831288 -0.7487835
vn 0.5773503 -0.5773503 -0.5773503
vn 0.7487835 -0.3150938 -0.5831288
vn 0.7778675 -0.6284284 0
vn 0.9435222 -0.1947386 -0.2680349
vn 0.9341724 -0.356822 0
vn 0.9435222 -0.1947386 0.2680349
vn 0.1947386 -0.2680349 0.9435222
vn 0.6284284 0 0.7778674
vn 0.356822 0 0.9341724
vn 0.1947386 0.268035 0.9435222
vn -0.5831288 -0.7487835 0.3150938
vn -0.3150938 -0.5831288 0.7487835
vn -0.5773503 -0.5773503 0.5773503
vn -0.7487835 -0.3150938 0.5831288
vn -0.3150938 -0.5831288 -0.7487835
vn -0.5831288 -0.7487835 -0.3150938
vn -0.5773503 -0.5773503 -0.5773503
vn -0.7487835 -0.3150938 -0.5831288
vn 0.6284284 0 -0.7778674
vn 0.1947386 -0.2680349 -0.9435222
vn 0.356822 0 -0.9341724
vn 0.1947386 0.268035 -0.9435222
vn 0.9435222 0.1947386 0.2680349
vn 0.9435222 0.1947386 -0.2680349
vn 0.9341724 0.356822 0
vn 0.7778675 0.6284283 0

usemtl Lit
f 1/1/1 2/2/1 3/3/1
f 2/4/2 4/5/2 5/6/2
f 2/7/3 5/8/3 3/9/3
f 3/9/4 5/8/4 6/10/4
f 1/1/5 3/3/5 7/11/5
f 3/3/6 6/12/6 8/13/6
f 3/3/7 8/13/7 7/11/7
f 7/11/8 8/13/8 9/14/8
f 1/1/9 7/11/9 10/15/9
f 7/11/10 9/14/10 11/16/10
f 7/11/11 11/16/11 10/15/11
f 10/15/12 11/16/12 12/17/12
f 1/1/13 10/15/13 13/18/13
f 10/19/14 12/10/14 14/20/14
f 10/19/15 14/20/15 13/21/15
f 13/22/16 14/23/16 15/24/16
f 1/25/17 13/22/17 2/4/17
f 13/22/18 15/24/18 16/26/18
f 13/22/19 16/26/19 2/4/19
f 2/4/20 16/26/20 4/5/20
f 9/14/21 8/13/21 17/27/21
f 8/19/22 6/10/22 18/20/22
f 8/19/23 18/20/23 17/21/23
f 17/22/24 18/23/24 19/24/24
f 6/10/25 5/8/25 20/26/25
f 5/8/26 4/28/26 21/29/26
f 5/8/27 21/29/27 20/26/27
f 20/26/28 21/29/28 22/30/28
f 4/5/29 16/26/29 23/3/29
f 16/26/30 15/24/30 24/13/30
f 16/26/31 24/13/31 23/3/31
f 23/3/32 24/13/32 25/31/32
f 15/32/33 14/20/33 26/33/33
f 14/20/34 12/10/34 27/26/34
f 14/20/35 27/26/35 26/33/35
f 26/33/36 27/26/36 28/30/36
f 12/10/37 11/9/37 29/8/37
f 11/16/38 9/14/38 30/34/38
f 11/9/39 30/7/39 29/8/39
f 29/6/40 30/4/40 31/5/40
f 32/1/41 33/2/41 34/3/41
f 33/13/42 19/24/42 35/35/42
f 33/36/43 35/33/43 34/37/43
f 34/37/44 35/33/44 22/30/44
f 32/1/45 34/3/45 36/11/45
f 34/3/46 22/12/46 37/13/46
f 34/3/47 37/13/47 36/11/47
f 36/11/48 37/13/48 25/14/48
f 32/1/49 36/11/49 38/15/49
f 36/11/50 25/14/50 39/16/50
f 36/11/51 39/16/51 38/15/51
f 38/15/52 39/16/52 28/17/52
f 32/1/53 38/15/53 40/18/53
f 38/38/54 28/30/54 41/29/54
f 38/38/55 41/29/55 40/39/55
f 40/3/56 41/40/56 31/5/56
f 32/31/57 40/3/57 33/13/57
f 40/3/58 31/5/58 42/26/58
f 40/3/59 42/26/59 33/13/59
f 33/13/60 42/26/60 19/24/60
f 22/30/61 35/33/61 20/26/61
f 35/33/62 19/32/62 18/20/62
f 35/33/63 18/20/63 20/26/63
f 20/26/64 18/20/64 6/10/64
f 25/14/65 37/13/65 23/27/65
f 37/38/66 22/30/66 21/29/66
f 37/38/67 21/29/67 23/39/67
f 23/3/68 21/40/68 4/5/68
f 28/30/69 39/37/69 26/33/69
f 39/16/70 25/14/70 24/34/70
f 39/37/71 24/36/71 26/33/71
f 26/35/72 24/13/72 15/24/72
f 31/28/73 41/29/73 29/8/73
f 41/29/74 28/30/74 27/26/74
f 41/29/75 27/26/75 29/8/75
f 29/8/76 27/26/76 12/10/76
f 19/24/77 42/26/77 17/22/77
f 42/26/78 31/5/78 30/4/78
f 42/26/79 30/4/79 17/22/79
f 17/22/80 30/4/80 9/25/80

